<svg xmlns="http://www.w3.org/2000/svg" version="1.1" xmlns:xlink="http://www.w3.org/1999/xlink" xmlns:svgjs="http://svgjs.com/svgjs" width="512" height="512" x="0" y="0" viewBox="0 0 682.667 682.667" style="enable-background:new 0 0 512 512" xml:space="preserve" class=""><g><defs><clipPath id="a" clipPathUnits="userSpaceOnUse"><path d="M0 512h512V0H0Z" fill="#000000" data-original="#000000"></path></clipPath></defs><g clip-path="url(#a)" transform="matrix(1.33333 0 0 -1.33333 0 682.667)"><path d="M0 0c0 9.79-7.995 17.792-17.775 17.792h-170.213c-9.781 0-17.776-8.002-17.776-17.792v-76.051c0-9.79 7.995-17.793 17.776-17.793h170.213C-7.995-93.844 0-85.841 0-76.051z" style="fill-opacity:1;fill-rule:evenodd;stroke:none" transform="translate(235.809 486.707)" fill="#ffdb4e" data-original="#ffdb4e"></path><path d="M0 0a69.15 69.15 0 0 1-17.975 31.215c-17.009 16.97-42.326 24.66-67.16 17.991-12.247-3.263-22.85-9.62-31.184-17.991-16.954-17.027-24.637-42.367-18.003-67.226 6.492-24.177 24.92-41.97 47.231-48.667 16.783-5.562 42.979-19.552 66.99 15.409C-5.954-56.215 2.409-37.657 2.381-18.02 2.381-12.061 1.615-6.016 0 0" style="fill-opacity:1;fill-rule:evenodd;stroke:none" transform="translate(379.004 331.54)" fill="#b1d7fe" data-original="#b1d7fe" class=""></path><path d="M0 0c-20.214 35.074-65.035 47.106-100.075 26.845-35.04-20.262-47.061-65.097-26.82-100.172 20.214-35.103 65.036-47.106 100.076-26.845C8.222-79.939 20.241-35.074 0 0" style="fill-opacity:1;fill-rule:evenodd;stroke:none" transform="translate(147.726 232.163)" fill="#ff8389" data-original="#ff8389"></path><path d="M0 0c-8.42 14.614-27.046 19.608-41.646 11.181-14.572-8.429-19.561-27.101-11.141-41.687 8.42-14.586 27.046-19.58 41.645-11.152C3.431-33.23 8.42-14.586 0 0" style="fill-opacity:1;fill-rule:evenodd;stroke:none" transform="translate(110.672 210.738)" fill="#e7ecf1" data-original="#e7ecf1"></path><path d="M0 0v16.998c0 10.613-5.698 17.253-12.786 19.836-11.651 4.285-27.103-2.327-27.103-19.836v69.326c0 28.15-39.887 28.15-39.887 0V-56.981c0-15.154-3.204-26.59-13.439-13.849-15.79 22.986-27.386 35.5-49.556 31.641-13.011-2.298-17.973-14.387-9.071-25.852l63.163-92.737c13.524-19.892 15.395-32.548 15.395-50.284 0-5.42 4.45-9.875 9.893-9.875H54.771c5.444 0 9.895 4.455 9.895 9.875v30.59c0 25.654 11.708 23.242 15.082 54.598v105.876c0 28.15-39.86 28.179-39.86 0V0C39.888 28.15 0 28.15 0 0" style="fill-opacity:1;fill-rule:evenodd;stroke:none" transform="translate(371.69 225.438)" fill="#ffece4" data-original="#ffece4" class=""></path><path d="M0 0c0 9.79-7.995 17.792-17.775 17.792h-36.288c9.781 0 17.775-8.002 17.775-17.792v-76.051c0-9.79-7.994-17.793-17.775-17.793h36.288C-7.995-93.844 0-85.841 0-76.051z" style="fill-opacity:1;fill-rule:evenodd;stroke:none" transform="translate(235.809 486.707)" fill="#ffaf5d" data-original="#ffaf5d"></path><path d="M0 0a69.15 69.15 0 0 1-17.975 31.215c-17.009 16.97-42.326 24.66-67.16 17.991a68.856 68.856 0 0 1-23.219-11.152c23.616 4.994 47.288-2.781 63.419-18.9 8.364-8.342 14.713-18.956 17.974-31.186a69.674 69.674 0 0 0 2.381-18.02c.028-14.869-4.763-29.115-13.211-40.806 5.273 3.178 11.936 3.717 17.69 1.589C-5.954-56.215 2.409-37.657 2.381-18.02 2.381-12.061 1.615-6.016 0 0" style="fill-opacity:1;fill-rule:evenodd;stroke:none" transform="translate(379.004 331.54)" fill="#8bc6f8" data-original="#8bc6f8" class=""></path><path d="M0 0c0 18.843-17.86 25.086-29.683 18.701 5.84-3.15 10.178-9.393 10.178-18.701v-105.875c-3.374-31.357-15.082-28.945-15.082-54.599v-30.59c0-5.42-4.451-9.875-9.894-9.875h19.504c5.444 0 9.895 4.455 9.895 9.875v30.59c0 25.654 11.708 23.242 15.082 54.599v66.743z" style="fill-opacity:1;fill-rule:evenodd;stroke:none" transform="translate(451.438 208.44)" fill="#ffddce" data-original="#ffddce"></path><path d="M0 0c0 28.15 39.888 28.15 39.888 0v-63.054" style="stroke-width:15;stroke-linecap:round;stroke-linejoin:round;stroke-miterlimit:10;stroke-dasharray:none;stroke-opacity:1" transform="translate(371.69 225.438)" fill="none" stroke="#000000" stroke-width="15" stroke-linecap="round" stroke-linejoin="round" stroke-miterlimit="10" stroke-dasharray="none" stroke-opacity="" data-original="#000000" class=""></path><path d="M0 0c0 28.179 39.86 28.15 39.86 0v-45.545" style="stroke-width:15;stroke-linecap:round;stroke-linejoin:round;stroke-miterlimit:10;stroke-dasharray:none;stroke-opacity:1" transform="translate(411.577 208.44)" fill="none" stroke="#000000" stroke-width="15" stroke-linecap="round" stroke-linejoin="round" stroke-miterlimit="10" stroke-dasharray="none" stroke-opacity="" data-original="#000000" class=""></path><path d="M0 0c0 28.15 39.888 28.15 39.888 0v-129.344" style="stroke-width:15;stroke-linecap:round;stroke-linejoin:round;stroke-miterlimit:10;stroke-dasharray:none;stroke-opacity:1" transform="translate(291.913 311.761)" fill="none" stroke="#000000" stroke-width="15" stroke-linecap="round" stroke-linejoin="round" stroke-miterlimit="10" stroke-dasharray="none" stroke-opacity="" data-original="#000000" class=""></path><path d="M0 0c0 28.15 39.889 28.15 39.889 0v-70.035" style="stroke-width:15;stroke-linecap:round;stroke-linejoin:round;stroke-miterlimit:10;stroke-dasharray:none;stroke-opacity:1" transform="translate(331.8 242.435)" fill="none" stroke="#000000" stroke-width="15" stroke-linecap="round" stroke-linejoin="round" stroke-miterlimit="10" stroke-dasharray="none" stroke-opacity="" data-original="#000000" class=""></path><path d="M0 0v-139.333" style="stroke-width:15;stroke-linecap:round;stroke-linejoin:round;stroke-miterlimit:10;stroke-dasharray:none;stroke-opacity:1" transform="translate(291.913 311.761)" fill="none" stroke="#000000" stroke-width="15" stroke-linecap="round" stroke-linejoin="round" stroke-miterlimit="10" stroke-dasharray="none" stroke-opacity="" data-original="#000000" class=""></path><path d="M0 0v-14.586c0-15.153-3.204-26.589-13.438-13.848-15.791 22.986-27.386 35.5-49.556 31.641-13.012-2.299-17.974-14.388-9.071-25.852l63.163-92.737c13.523-19.892 15.394-32.549 15.394-50.285 0-5.42 4.45-9.875 9.894-9.875h118.162c5.443 0 9.894 4.455 9.894 9.875v30.591c0 25.653 11.708 23.241 15.082 54.598v25.682" style="stroke-width:15;stroke-linecap:round;stroke-linejoin:round;stroke-miterlimit:10;stroke-dasharray:none;stroke-opacity:1" transform="translate(291.913 183.042)" fill="none" stroke="#000000" stroke-width="15" stroke-linecap="round" stroke-linejoin="round" stroke-miterlimit="10" stroke-dasharray="none" stroke-opacity="" data-original="#000000" class=""></path><path d="m0 0-57.891-57.946" style="stroke-width:15;stroke-linecap:round;stroke-linejoin:round;stroke-miterlimit:10;stroke-dasharray:none;stroke-opacity:1" transform="translate(418.92 420.702)" fill="none" stroke="#000000" stroke-width="15" stroke-linecap="round" stroke-linejoin="round" stroke-miterlimit="10" stroke-dasharray="none" stroke-opacity="" data-original="#000000" class=""></path><path d="M0 0h-54.801" style="stroke-width:15;stroke-linecap:round;stroke-linejoin:round;stroke-miterlimit:10;stroke-dasharray:none;stroke-opacity:1" transform="translate(436.185 313.521)" fill="none" stroke="#000000" stroke-width="15" stroke-linecap="round" stroke-linejoin="round" stroke-miterlimit="10" stroke-dasharray="none" stroke-opacity="" data-original="#000000" class=""></path><path d="m0 0 30.42-30.449" style="stroke-width:15;stroke-linecap:round;stroke-linejoin:round;stroke-miterlimit:10;stroke-dasharray:none;stroke-opacity:1" transform="translate(232.265 393.204)" fill="none" stroke="#000000" stroke-width="15" stroke-linecap="round" stroke-linejoin="round" stroke-miterlimit="10" stroke-dasharray="none" stroke-opacity="" data-original="#000000" class=""></path><path d="M0 0h-59.109c-9.781 0-17.776 8.002-17.776 17.792v76.052c0 9.79 7.995 17.792 17.776 17.792h170.213c9.78 0 17.775-8.002 17.775-17.792V17.792C128.879 8.031 120.884 0 111.104 0h-76.46" style="stroke-width:15;stroke-linecap:round;stroke-linejoin:round;stroke-miterlimit:10;stroke-dasharray:none;stroke-opacity:1" transform="translate(106.93 392.864)" fill="none" stroke="#000000" stroke-width="15" stroke-linecap="round" stroke-linejoin="round" stroke-miterlimit="10" stroke-dasharray="none" stroke-opacity="" data-original="#000000" class=""></path><path d="M0 0h78.303M-61.462 0h22.821" style="stroke-width:15;stroke-linecap:round;stroke-linejoin:round;stroke-miterlimit:10;stroke-dasharray:none;stroke-opacity:1" transform="translate(121.898 467.07)" fill="none" stroke="#000000" stroke-width="15" stroke-linecap="round" stroke-linejoin="round" stroke-miterlimit="10" stroke-dasharray="none" stroke-opacity="" data-original="#000000" class=""></path><path d="m0 0 94.632 54.711" style="stroke-width:15;stroke-linecap:round;stroke-linejoin:round;stroke-miterlimit:10;stroke-dasharray:none;stroke-opacity:1" transform="translate(150.05 240.818)" fill="none" stroke="#000000" stroke-width="15" stroke-linecap="round" stroke-linejoin="round" stroke-miterlimit="10" stroke-dasharray="none" stroke-opacity="" data-original="#000000" class=""></path><path d="M0 0c-22.312 6.697-40.739 24.49-47.231 48.667-9.922 37.118 12.077 75.285 49.187 85.217 37.081 9.961 75.212-12.089 85.135-49.206 6.945-25.88-1.673-52.271-20.101-69.269" style="stroke-width:15;stroke-linecap:round;stroke-linejoin:round;stroke-miterlimit:10;stroke-dasharray:none;stroke-opacity:1" transform="translate(291.913 246.862)" fill="none" stroke="#000000" stroke-width="15" stroke-linecap="round" stroke-linejoin="round" stroke-miterlimit="10" stroke-dasharray="none" stroke-opacity="" data-original="#000000" class=""></path><path d="M0 0h-78.302M61.463 0H38.641" style="stroke-width:15;stroke-linecap:round;stroke-linejoin:round;stroke-miterlimit:10;stroke-dasharray:none;stroke-opacity:1" transform="translate(138.738 431.116)" fill="none" stroke="#000000" stroke-width="15" stroke-linecap="round" stroke-linejoin="round" stroke-miterlimit="10" stroke-dasharray="none" stroke-opacity="" data-original="#000000" class=""></path><path d="M0 0c0 15.522-12.56 28.122-28.066 28.122-15.508 0-28.095-12.6-28.095-28.122s12.587-28.094 28.095-28.094C-12.56-28.094 0-15.522 0 0" style="fill-opacity:1;fill-rule:evenodd;stroke:none" transform="translate(492.347 313.521)" fill="#ff8389" data-original="#ff8389"></path><path d="M0 0c-16.727 16.743-43.885 16.743-60.611 0-16.755-16.743-16.755-43.928 0-60.671 16.726-16.771 43.884-16.771 60.611 0C16.755-43.928 16.755-16.743 0 0" style="fill-opacity:1;fill-rule:evenodd;stroke:none" transform="translate(488.434 480.38)" fill="#ff8389" data-original="#ff8389"></path><path d="M0 0c16.755 16.743 16.755 43.928 0 60.671-12.247 12.259-30.107 15.551-45.331 9.847 7.371-1.788 14.373-5.562 20.156-11.351 16.727-16.743 16.727-43.928 0-60.671a42.662 42.662 0 0 0-15.28-9.847C-26.394-14.785-10.971-10.982 0 0" style="fill-opacity:1;fill-rule:evenodd;stroke:none" transform="translate(488.434 419.709)" fill="#ff6677" data-original="#ff6677"></path><path d="M0 0c0 15.522-12.56 28.122-28.066 28.122a27.914 27.914 0 0 1-14.09-3.803c9.978-4.285 16.981-14.245 16.981-25.823 0-10.358-5.641-19.439-14.005-24.291a27.8 27.8 0 0 1 11.114-2.299C-12.56-28.094 0-15.522 0 0" style="fill-opacity:1;fill-rule:evenodd;stroke:none" transform="translate(492.347 313.521)" fill="#ff6677" data-original="#ff6677"></path><path d="M0 0c16.727 16.743 43.885 16.743 60.611 0 16.755-16.743 16.755-43.928 0-60.671-16.726-16.771-43.884-16.771-60.611 0C-16.755-43.928-16.755-16.743 0 0Z" style="stroke-width:15;stroke-linecap:round;stroke-linejoin:round;stroke-miterlimit:10;stroke-dasharray:none;stroke-opacity:1" transform="translate(427.822 480.38)" fill="none" stroke="#000000" stroke-width="15" stroke-linecap="round" stroke-linejoin="round" stroke-miterlimit="10" stroke-dasharray="none" stroke-opacity="" data-original="#000000" class=""></path><path d="M0 0c15.507 0 28.066-12.6 28.066-28.122S15.507-56.215 0-56.215c-15.508 0-28.095 12.571-28.095 28.093S-15.508 0 0 0Z" style="stroke-width:15;stroke-linecap:round;stroke-linejoin:round;stroke-miterlimit:10;stroke-dasharray:none;stroke-opacity:1" transform="translate(464.28 341.643)" fill="none" stroke="#000000" stroke-width="15" stroke-linecap="round" stroke-linejoin="round" stroke-miterlimit="10" stroke-dasharray="none" stroke-opacity="" data-original="#000000" class=""></path><path d="M0 0c20.241-35.074 8.222-79.939-26.819-100.172a73.193 73.193 0 0 0-20.384-8.031c16.415-2.922 33.879-.283 49.442 8.712C37.28-79.258 49.3-34.393 29.059.681 12.615 29.229-20.129 42.509-50.633 35.557-30.107 31.896-11.255 19.523 0 0" style="fill-opacity:1;fill-rule:evenodd;stroke:none" transform="translate(118.667 231.482)" fill="#ff6677" data-original="#ff6677"></path><path d="M0 0c-35.04-20.261-79.861-8.258-100.075 26.845-20.241 35.074-8.221 79.91 26.819 100.172 35.04 20.261 79.861 8.229 100.075-26.845C47.061 65.098 35.041 20.233 0 0Z" style="stroke-width:15;stroke-linecap:round;stroke-linejoin:round;stroke-miterlimit:10;stroke-dasharray:none;stroke-opacity:1" transform="translate(120.906 131.991)" fill="none" stroke="#000000" stroke-width="15" stroke-linecap="round" stroke-linejoin="round" stroke-miterlimit="10" stroke-dasharray="none" stroke-opacity="" data-original="#000000" class=""></path><path d="M0 0c-14.6-8.428-33.226-3.434-41.646 11.152-8.419 14.586-3.43 33.258 11.142 41.686 14.6 8.428 33.226 3.434 41.646-11.18C19.562 27.072 14.572 8.428 0 0Z" style="stroke-width:15;stroke-linecap:round;stroke-linejoin:round;stroke-miterlimit:10;stroke-dasharray:none;stroke-opacity:1" transform="translate(99.53 169.08)" fill="none" stroke="#000000" stroke-width="15" stroke-linecap="round" stroke-linejoin="round" stroke-miterlimit="10" stroke-dasharray="none" stroke-opacity="" data-original="#000000" class=""></path></g></g></svg>
